<?xml version="1.0" encoding="utf-8"?>
<!-- Generator: Adobe Illustrator 16.0.0, SVG Export Plug-In . SVG Version: 6.00 Build 0)  -->
<!DOCTYPE svg PUBLIC "-//W3C//DTD SVG 1.1//EN" "http://www.w3.org/Graphics/SVG/1.1/DTD/svg11.dtd">
<svg version="1.1" xmlns="http://www.w3.org/2000/svg" xmlns:xlink="http://www.w3.org/1999/xlink" x="0px" y="0px" width="1920px"
	 height="1080px" viewBox="0 0 1920 1080" enable-background="new 0 0 1920 1080" xml:space="preserve">
<g id="Layer_1">
	<g>
		<path fill="#FFFFFF" d="M1035.316,515.85l-63.936,148.591h-39.072c-0.796-6.309-3.358-22.395-7.696-48.248
			c-4.348-25.844-7.308-43.705-8.88-53.576c-3.164-24.465-5.328-40.052-6.512-46.767l-34.928,171.087h-55.056l62.752-268.768h55.648
			c0.389,3.95,1.378,10.166,2.96,18.648c1.573,8.492,3.256,17.963,5.032,28.416c1.776,10.462,3.645,21.812,5.624,34.04
			c1.97,12.238,3.746,23.976,5.328,35.225c1.572,11.248,2.96,21.607,4.144,31.08c1.184,9.471,2.164,16.973,2.961,22.496
			c1.572-5.125,4.439-12.432,8.584-21.904c4.144-9.473,8.584-19.924,13.319-31.376c4.735-11.442,9.86-23.18,15.392-35.224
			c5.522-12.034,10.749-23.384,15.688-34.04c4.931-10.656,9.269-20.22,13.024-28.712c3.746-8.482,6.604-14.698,8.584-18.648h55.647
			l-13.023,268.768h-57.425c0.389-4.338,0.787-10.85,1.184-19.535c0.389-8.678,1.083-18.445,2.072-29.305
			c0.98-10.85,1.776-22.199,2.369-34.039c0.592-11.842,1.275-23.283,2.071-34.336c0.786-11.045,1.572-21.406,2.368-31.081
			C1034.327,528.975,1034.919,521.381,1035.316,515.85z"/>
		<path fill="#FFFFFF" d="M1127.498,733.641c17.76,5.92,34.928,8.879,51.504,8.879c11.84,0,19.535-1.582,23.088-4.736
			c7.492-6.715,12.626-17.963,15.393-33.744l7.104-44.99h-1.184c-20.924,20.922-41.44,31.375-61.568,31.375
			c-20.129,0-33.355-6.012-39.664-18.057c-6.318-12.033-7.899-30.486-4.736-55.352l20.129-140.896h55.647l-18.353,127.28
			c-1.582,16.576-1.775,26.639-0.592,30.191c2.757,5.92,8.288,8.881,16.576,8.881c9.473,0,20.322-5.717,32.561-17.168
			c2.756-2.369,4.93-4.145,6.512-5.328l20.128-143.856h55.056l-31.968,226.735c-3.95,27.621-13.024,48.045-27.231,61.273
			c-14.209,13.217-35.133,19.832-62.752,19.832c-19.342,0-41.441-4.145-66.305-12.434L1127.498,733.641z"/>
		<path fill="#FFFFFF" d="M1455.945,478.534l-5.38,40.51l-0.13,0.64c-3.17-0.39-8.59-1.78-16.28-4.15
			c-7.7-2.36-15.9-3.55-24.57-3.55c-16.58,0-25.859,5.53-27.83,16.58c-0.79,5.13,0.49,9.77,3.851,13.91
			c3.35,4.141,7.59,8.29,12.729,12.431c5.12,4.14,10.851,8.489,17.17,13.029c5.471,3.94,10.49,8.23,15.07,12.91l0.01,0.01
			c0.7,0.71,1.4,1.44,2.08,2.17c11.84,12.641,16.38,27.631,13.62,44.99c-1.58,17.37-9.08,32.181-22.5,44.4
			c-14.2,12.24-33.55,18.359-58.01,18.359c-16.19,0-28.42-1.59-36.71-4.739c-7.13-2.57-12.91-4.84-17.36-6.82l5.54-41.71
			c1.181,0.39,3.34,1.37,6.5,2.95c3.15,1.58,6.9,3.16,11.24,4.729c11.05,3.551,20.33,5.33,27.83,5.33c7.49,0,13.51-1.279,18.05-3.85
			c4.54-2.561,7.3-7.101,8.29-13.61c0.98-6.52-0.1-12.04-3.25-16.58c-3.17-4.529-7.21-8.97-12.14-13.319
			c-4.94-4.341-10.36-8.78-16.28-13.32c-5.92-4.53-11.25-9.771-15.98-15.69c-1.569-1.85-3.01-3.75-4.31-5.689
			c-0.96-1.42-1.84-2.88-2.65-4.351c-5.83-10.609-7.85-22.46-6.069-35.54c1.81-13.26,6.899-24.5,15.26-33.74l0.01-0.01
			c2.59-2.86,5.49-5.52,8.71-7.99c13.61-10.45,31.87-15.69,54.76-15.69C1423.985,471.134,1440.235,473.604,1455.945,478.534z"/>
		<path fill="#FFFFFF" d="M1603.464,475.659l-4.735,40.256h-45.584l-14.208,100.64c-1.582,9.084-1.582,15.791,0,20.129
			c1.572,4.348,5.624,6.512,12.136,6.512s12.136-0.889,16.872-2.664c4.735-1.775,7.89-2.859,9.472-3.256v39.072
			c-1.582,0.396-3.949,1.387-7.104,2.959c-3.164,1.582-6.716,3.164-10.656,4.736c-9.87,4.338-20.924,6.512-33.152,6.512
			c-18.943,0-31.773-5.031-38.479-15.096c-6.716-10.064-8.492-27.131-5.328-51.207l15.983-108.337h-22.495l5.327-40.256h22.496
			l7.104-50.32l56.24-8.88l-8.881,59.2H1603.464z"/>
		<path fill="#FFFFFF" d="M1666.855,686.938h-55.595l28.694-208.033l57.388-7.771L1666.855,686.938z M1682.597,379.69
			c8.88,0,15.78,3.164,20.72,9.472c4.93,6.318,6.706,14.31,5.328,23.976c-1.388,9.675-5.43,17.565-12.137,23.68
			c-6.715,6.124-14.504,9.176-23.384,9.176s-15.892-3.053-21.016-9.176c-5.134-6.114-7.104-13.912-5.92-23.384
			c1.97-9.86,6.309-17.954,13.023-24.272C1665.919,382.854,1673.716,379.69,1682.597,379.69z"/>
		<path fill="#FFFFFF" d="M1855.997,520.27c-13.023-4.338-24.077-6.512-33.151-6.512c-13.819,0-24.67,5.43-32.561,16.28
			c-7.899,10.859-13.523,28.222-16.872,52.095c-3.357,23.885-2.368,40.654,2.96,50.32c5.328,9.676,13.024,14.504,23.088,14.504
			c10.064,0,18.843-1.479,26.345-4.439c7.492-2.959,12.626-4.828,15.392-5.623l7.696,34.336
			c-21.71,13.023-42.43,19.535-62.16,19.535c-56.832,0-80.317-35.715-70.448-107.152c9.86-74.98,44.789-112.479,104.784-112.479
			c16.965,0,32.754,2.766,47.36,8.288L1855.997,520.27z"/>
	</g>
</g>
<g id="Layer_2">
	<path fill="#FFFFFF" d="M679.547,615.761c-20.807,89.238-78.272,160.389-152.755,201.253l104.76-449.307
		C680.283,437.297,700.352,526.525,679.547,615.761z"/>
	<path fill="#FFFFFF" d="M485.813,255.15c29.778,11.027,57.05,26.313,81.254,44.985L439.071,849.091
		c-29.967,6.046-61.188,7.693-92.769,4.414L485.813,255.15z"/>
	<path fill="#FFFFFF" d="M316.94,241.815c29.968-6.039,61.188-7.69,92.77-4.408l-139.513,598.35
		c-29.776-11.022-57.048-26.311-81.252-44.979L316.94,241.815z"/>
	<path fill="#FFFFFF" d="M229.218,273.897L124.459,723.203c-48.728-69.59-68.799-158.819-47.993-248.056
		C97.272,385.913,154.738,314.761,229.218,273.897z"/>
</g>
<g id="Layer_4" display="none">
	<circle display="inline" fill="#FFFFFF" cx="395" cy="552.554" r="211.5"/>
	<path display="inline" fill="#FFFFFF" d="M623.422,366.574c-25.931,0-46.942,21.021-46.942,46.942
		c0-25.921-21.02-46.942-46.941-46.942c25.922,0,46.941-21.011,46.941-46.941C576.479,345.563,597.491,366.574,623.422,366.574z"/>
	<path display="inline" fill="#FFFFFF" d="M541.892,285.043c-25.932,0-46.942,21.021-46.942,46.942
		c0-25.921-21.021-46.942-46.942-46.942c25.922,0,46.942-21.011,46.942-46.941C494.949,264.032,515.96,285.043,541.892,285.043z"/>
	<path display="inline" fill="#488DCB" d="M541.892,453.646c-25.932,0-46.941,21.021-46.941,46.942
		c0-25.921-21.021-46.942-46.943-46.942c25.922,0,46.943-21.01,46.943-46.942C494.95,432.635,515.96,453.646,541.892,453.646z"/>
</g>
<g id="Layer_3" display="none">
	<path display="inline" fill="#488DCB" d="M543.425,376.104l-58.614,251.392c-27.264-38.938-38.494-88.86-26.853-138.79
		C469.6,438.778,501.752,398.967,543.425,376.104z"/>
	<path display="inline" fill="#488DCB" d="M592.506,358.153c16.768-3.378,34.236-4.302,51.906-2.466L566.353,690.47
		c-16.66-6.167-31.919-14.721-45.462-25.167L592.506,358.153z"/>
	<path display="inline" fill="#488DCB" d="M686.992,365.614c16.661,6.17,31.92,14.722,45.463,25.17L660.84,697.931
		c-16.767,3.382-34.235,4.304-51.906,2.47L686.992,365.614z"/>
</g>
</svg>
